# Blender 4.3.2
# www.blender.org
mtllib shieldd.mtl
g force_shield.smd_force_shield.smd
v 91.179611 0.993484 0.007738
v -91.563148 0.993484 0.007753
v -99.081184 12.066776 0.007754
v 99.055618 12.066776 0.007736
v -99.081184 43.343575 0.007752
v 99.055618 43.343575 0.007734
v -102.754021 52.770527 0.007751
v 102.580498 52.770527 0.007733
v -102.754021 88.158432 0.007749
v 102.580498 88.158432 0.007731
v -99.081184 96.112259 0.007748
v 99.055618 96.112259 0.007730
v -99.081184 130.706375 0.007745
v 99.055618 130.706375 0.007727
v -91.399040 139.431442 0.007743
v 91.373497 139.431442 0.007728
vn -0.0000 -0.0000 1.0000
vt 0.054653 0.000082
vt 0.944628 0.000084
vt 0.017246 0.042567
vt 0.982034 0.042568
vt 0.017246 0.211016
vt 0.982034 0.211017
vt 0.000082 0.249746
vt 0.999918 0.249746
vt 0.000082 0.422060
vt 0.999918 0.422061
vt 0.017246 0.467963
vt 0.982034 0.467964
vt 0.017246 0.620259
vt 0.982034 0.620260
vt 0.055596 0.674179
vt 0.945427 0.674178
s 1
usemtl force_shield_phase_1
f 16/1/1 15/2/1 14/3/1
f 15/2/1 13/4/1 14/3/1
f 14/3/1 13/4/1 12/5/1
f 13/4/1 11/6/1 12/5/1
f 12/5/1 11/6/1 10/7/1
f 11/6/1 9/8/1 10/7/1
f 10/7/1 9/8/1 8/9/1
f 9/8/1 7/10/1 8/9/1
f 8/9/1 7/10/1 6/11/1
f 7/10/1 5/12/1 6/11/1
f 6/11/1 5/12/1 4/13/1
f 5/12/1 3/14/1 4/13/1
f 4/13/1 3/14/1 1/15/1
f 3/14/1 2/16/1 1/15/1
