# Blender 4.3.2
# www.blender.org
mtllib Shield.mtl
o force_shield.smd
v 1.316327 -0.004827 0.007741
v -1.427786 -0.004827 0.007741
v -1.540679 0.161452 0.007741
v 1.434595 0.161452 0.007741
v -1.540679 0.631113 0.007741
v 1.434595 0.631113 0.007741
v -1.595831 0.772671 0.007741
v 1.487526 0.772671 0.007741
v -1.595831 1.304065 0.007741
v 1.487526 1.304065 0.007741
v -1.540679 1.423501 0.007741
v 1.434595 1.423501 0.007741
v -1.540679 1.942976 0.007741
v 1.434595 1.942976 0.007741
v -1.425322 2.073994 0.007741
v 1.319239 2.073994 0.007741
vn -0.0000 -0.0000 1.0000
vt 0.054653 0.000082
vt 0.944628 0.000084
vt 0.017246 0.042567
vt 0.982034 0.042568
vt 0.017246 0.211016
vt 0.982034 0.211017
vt 0.000082 0.249746
vt 0.999918 0.249746
vt 0.000082 0.422060
vt 0.999918 0.422061
vt 0.017246 0.467963
vt 0.982034 0.467964
vt 0.017246 0.620259
vt 0.982034 0.620260
vt 0.055596 0.674179
vt 0.945427 0.674178
s 1
usemtl force_shield_phase_1
f 16/1/1 15/2/1 14/3/1
f 15/2/1 13/4/1 14/3/1
f 14/3/1 13/4/1 12/5/1
f 13/4/1 11/6/1 12/5/1
f 12/5/1 11/6/1 10/7/1
f 11/6/1 9/8/1 10/7/1
f 10/7/1 9/8/1 8/9/1
f 9/8/1 7/10/1 8/9/1
f 8/9/1 7/10/1 6/11/1
f 7/10/1 5/12/1 6/11/1
f 6/11/1 5/12/1 4/13/1
f 5/12/1 3/14/1 4/13/1
f 4/13/1 3/14/1 1/15/1
f 3/14/1 2/16/1 1/15/1
